<svg width="78" height="78" viewBox="0 0 78 78" fill="none" xmlns="http://www.w3.org/2000/svg">
<path d="M12.0758 26.9258H2.28516C1.02314 26.9258 0 27.9489 0 29.2109V53.6875C0 54.9496 1.02314 55.9727 2.28516 55.9727H12.0758C13.3378 55.9727 14.361 54.9496 14.361 53.6875V29.2109C14.361 27.9489 13.3378 26.9258 12.0758 26.9258Z" fill="black"/>
<path d="M54.9103 53.3611C56.1723 53.3611 57.1954 52.3379 57.1954 51.0759V46.0181H57.3578C58.6198 46.0181 59.643 44.9949 59.643 43.7329C59.643 42.4709 58.6198 41.4478 57.3578 41.4478H57.1954V29.047C57.1954 28.1229 56.6387 27.2896 55.7849 26.9358C54.9313 26.5821 53.9484 26.7774 53.2947 27.4309C53.2947 27.4309 46.1599 34.5632 42.7773 37.9434C41.258 39.471 40.3867 41.5812 40.3867 43.7329C40.3867 44.9949 41.4099 46.0181 42.6719 46.0181H52.6251V51.0759C52.6251 52.3379 53.6481 53.3611 54.9103 53.3611ZM45.7652 41.4478C45.8429 41.3515 45.9255 41.2592 46.0128 41.1713C47.7244 39.4609 50.4012 36.7854 52.625 34.5624V41.4478H45.7652Z" fill="black"/>
<path d="M36.3894 51.0758C36.3894 49.8138 35.3663 48.7906 34.1043 48.7906H24.9596C25.0371 48.6943 25.1197 48.6019 25.207 48.5141C28.5849 45.1386 35.7199 38.0059 35.7199 38.0059C36.1486 37.5774 36.3896 36.996 36.3896 36.3898V35.1661C36.3896 30.5319 32.6195 26.7617 27.9854 26.7617C23.3072 26.7617 19.5811 30.5511 19.5811 35.1635V35.1659C19.5811 36.4279 20.6042 37.4499 21.8662 37.4499C23.1282 37.4499 24.1514 36.4255 24.1514 35.1635C24.1514 33.0671 25.8393 31.332 27.9854 31.332C30.0995 31.332 31.8193 33.052 31.8193 35.1661V35.443C29.9663 37.2954 24.7256 42.5342 21.9715 45.2864C20.4522 46.814 19.5811 48.9242 19.5811 51.0758C19.5811 52.3378 20.6042 53.3609 21.8662 53.3609H34.1044C35.3663 53.3609 36.3894 52.3378 36.3894 51.0758Z" fill="black"/>
<path d="M39.0002 4.57031C50.4696 4.57031 60.1336 12.4477 62.8665 23.0763C63.7878 22.615 64.826 22.3539 65.9245 22.3539H67.3951C64.3022 9.54464 52.7457 0 39.0002 0C25.2547 0 13.6982 9.54464 10.6055 22.3539H12.076C13.1746 22.3539 14.2127 22.615 15.134 23.0763C17.8668 12.4477 27.5309 4.57031 39.0002 4.57031Z" fill="black"/>
<path d="M62.4197 59.5742C60.1355 64.8403 54.8865 68.5336 48.7904 68.5336H45.8054C44.8485 65.6916 42.1603 63.6383 38.9999 63.6383C35.0406 63.6383 31.8193 66.8594 31.8193 70.8187C31.8193 74.778 35.0405 77.9991 38.9998 77.9991C42.1601 77.9991 44.8484 75.9458 45.8053 73.1039H48.7903C57.0855 73.1039 64.1814 67.875 66.9582 60.5405H65.9239C64.6442 60.5405 63.4459 60.1871 62.4197 59.5742Z" fill="black"/>
<path d="M75.7145 26.9258H65.9238C64.6618 26.9258 63.6387 27.9489 63.6387 29.2109V53.6875C63.6387 54.9496 64.6618 55.9727 65.9238 55.9727H75.7145C76.9765 55.9727 77.9997 54.9496 77.9997 53.6875V29.2109C77.9997 27.9489 76.9765 26.9258 75.7145 26.9258Z" fill="black"/>
</svg>
