<svg width="85" height="85" viewBox="0 0 85 85" fill="none" xmlns="http://www.w3.org/2000/svg">
<path d="M75.8691 55.0721C71.6977 55.0721 68.1733 57.8849 67.0863 61.7127H58.2715V51.9917H67.2717C77.0472 51.9917 85 44.0389 85 34.2634C85 26.4256 79.8017 19.5403 72.422 17.2977C70.1912 8.36542 62.1282 1.95904 52.79 1.95904C49.17 1.95904 45.7023 2.89255 42.6419 4.67605C39.4008 1.71201 35.151 0.046875 30.6857 0.046875C21.1077 0.046875 13.2794 7.6821 12.967 17.1852C5.38654 19.304 0 26.2446 0 34.2634C0 44.0389 7.95281 51.9917 17.7283 51.9917H26.7285V61.7127H17.9137C16.8268 57.8849 13.3023 55.0721 9.13086 55.0721C4.0961 55.0721 0 59.1682 0 64.2029C0 69.2377 4.0961 73.3338 9.13086 73.3338C13.3023 73.3338 16.8267 70.521 17.9137 66.6932H29.2188C30.594 66.6932 31.709 65.5782 31.709 64.2029V51.9917H40.0098V67.0411C36.1819 68.1281 33.3691 71.6526 33.3691 75.824C33.3691 80.8588 37.4652 84.9549 42.5 84.9549C47.5348 84.9549 51.6309 80.8588 51.6309 75.824C51.6309 71.6526 48.8181 68.1282 44.9902 67.0411V51.9917H53.291V64.2029C53.291 65.5782 54.406 66.6932 55.7812 66.6932H67.0863C68.1732 70.521 71.6977 73.3338 75.8691 73.3338C80.9039 73.3338 85 69.2377 85 64.2029C85 59.1682 80.9039 55.0721 75.8691 55.0721ZM9.13086 68.3533C6.84233 68.3533 4.98047 66.4915 4.98047 64.2029C4.98047 61.9144 6.84233 60.0526 9.13086 60.0526C11.4194 60.0526 13.2812 61.9144 13.2812 64.2029C13.2812 66.4915 11.4194 68.3533 9.13086 68.3533ZM46.6504 75.824C46.6504 78.1126 44.7885 79.9744 42.5 79.9744C40.2115 79.9744 38.3496 78.1126 38.3496 75.824C38.3496 73.5355 40.2115 71.6736 42.5 71.6736C44.7885 71.6736 46.6504 73.5355 46.6504 75.824ZM17.7283 47.0112C10.6992 47.0112 4.98047 41.2926 4.98047 34.2634C4.98047 27.9808 9.66327 22.5583 15.8728 21.6502C17.1831 21.4586 18.1141 20.2749 17.9919 18.9564C17.9559 18.5674 17.9377 18.17 17.9377 17.775C17.9377 10.7461 23.6564 5.02751 30.6855 5.02751C34.4358 5.02751 37.9724 6.65778 40.3883 9.5003C41.2365 10.4982 42.7125 10.6686 43.7659 9.89027C46.3776 7.95984 49.4981 6.93951 52.7898 6.93951C60.3648 6.93951 66.6642 12.4975 67.8418 19.7277C68.0083 20.75 68.7904 21.5625 69.8056 21.768C75.7239 22.9662 80.0194 28.2211 80.0194 34.2634C80.0194 41.2926 74.3006 47.0112 67.2715 47.0112H17.7283ZM75.8691 68.3533C73.5806 68.3533 71.7188 66.4915 71.7188 64.2029C71.7188 61.9144 73.5806 60.0526 75.8691 60.0526C78.1577 60.0526 80.0195 61.9144 80.0195 64.2029C80.0195 66.4915 78.1577 68.3533 75.8691 68.3533Z" fill="black"/>
</svg>
