<svg width="39" height="27" viewBox="0 0 39 27" fill="none" xmlns="http://www.w3.org/2000/svg">
<path d="M15.005 11.8942L15.0317 11.9186C15.0317 11.9186 15.0337 11.9186 15.0337 11.9207L19.5049 16L23.9089 11.9786L24.0742 11.8281L37 0.0264429C36.8941 0.00813628 36.7872 0 36.6794 0H2.32065C2.21277 0 2.10589 0.00813628 2 0.0264429L14.9961 11.8861C14.9961 11.8861 15.001 11.8912 15.004 11.8942H15.005Z" fill="#004A61"/>
<path d="M0.0185728 2C0.0058651 2.09245 0 2.1859 0 2.28134V24.6948C0 24.7972 0.00782014 24.8996 0.0215054 25L12 12.818L0.0185728 2Z" fill="#004A61"/>
<path d="M20.3207 18.1835C20.0869 18.403 19.7957 18.5132 19.5035 18.5132C19.2112 18.5132 18.919 18.403 18.6862 18.1835L14.2422 14L2 26.9769C2.10005 26.9926 2.2011 27 2.30412 27H36.6969C36.7979 27 36.8999 26.9916 37 26.9759L24.7617 14.0032L20.3227 18.1825L20.3207 18.1835Z" fill="#004A61"/>
<path d="M38.9814 2L27 12.821L38.9785 25C38.9932 24.8996 39 24.7982 39 24.6948V2.28134C39 2.1859 38.9932 2.09245 38.9804 2H38.9814Z" fill="#004A61"/>
</svg>
