<svg width="37" height="33" viewBox="0 0 37 33" fill="none" xmlns="http://www.w3.org/2000/svg">
<path fill-rule="evenodd" clip-rule="evenodd" d="M3.95819 17.4698H1.79705C1.04308 17.4698 0.404691 17.0714 0.129065 16.4414C-0.146562 15.8037 0.0277053 15.1159 0.571252 14.6451L17.2784 0.440236C17.9671 -0.146745 19.0329 -0.146745 19.7222 0.440236L36.4287 14.6451C36.9723 15.1159 37.1466 15.8043 36.8709 16.4414C36.5953 17.0714 35.9575 17.4698 35.2029 17.4698H32.9843V31.2108C32.9843 32.1961 32.1794 33 31.193 33H24.4494C23.4631 33 22.6581 32.1961 22.6581 31.2108V25.691C22.6581 23.4091 20.7874 21.5403 18.4959 21.5403C16.212 21.5403 14.3407 23.4091 14.3407 25.691V31.2108C14.3407 32.1961 13.5358 33 12.5494 33H5.74769C4.76136 33 3.95642 32.1961 3.95642 31.2108V17.4698H3.95819Z" fill="white"/>
</svg>
