<svg width="84" height="84" viewBox="0 0 84 84" fill="none" xmlns="http://www.w3.org/2000/svg">
<path fill-rule="evenodd" clip-rule="evenodd" d="M71.6779 53.6983L57.0911 57.9894C57.1427 58.6192 57.0885 59.5137 56.8864 60.1153C55.9981 63.2901 52.7054 65.1937 49.5108 64.3794C45.1159 63.4958 39.8595 61.8015 35.4252 60.617C34.8133 60.4534 34.4497 59.8247 34.6133 59.2128C34.7768 58.6008 35.4055 58.2373 36.0175 58.4008L50.0346 62.1456C51.9783 62.665 54.2601 61.4568 54.6893 59.4536C55.2287 57.434 54.0166 55.3386 51.9972 54.799L41.4497 51.9812C41.4501 51.9799 41.1167 51.8277 41.0863 51.8063C37.7186 49.4219 35.2231 48.5587 32.9377 48.6193C30.641 48.6801 28.4096 49.6867 25.6745 51.0267C22.5719 52.5466 19.5727 53.9757 16.5994 55.3824L23.4258 70.9014L27.2601 69.0336C29.1067 68.1342 31.0078 67.9742 32.9799 68.5453L44.6125 71.9137C47.674 72.8001 51.6743 71.2399 54.8476 70.0023L77.3827 61.299C79.1319 60.6234 80.3921 58.8832 80.7196 57.1251C80.9524 55.8749 80.7107 54.5936 79.6542 53.7885C78.3302 52.7796 75.8117 52.4823 71.6779 53.6983ZM75.6159 34.1394C71.9501 34.1394 70.1108 38.5804 72.7028 41.1725C73.1803 41.6501 73.1803 42.4244 72.7028 42.9019L70.0703 45.5344C69.5929 46.0118 68.8183 46.0118 68.3409 45.5344C65.7489 42.9424 61.3079 44.7817 61.3079 48.4475C61.3079 49.1231 60.7602 49.6703 60.0851 49.6703H56.3622C55.6871 49.6703 55.1395 49.1231 55.1395 48.4475C55.1395 44.7773 50.7017 42.9391 48.1064 45.5344C47.629 46.0118 46.8546 46.0118 46.377 45.5344L43.7445 42.9019C43.2671 42.4244 43.2671 41.6501 43.7445 41.1725C46.3365 38.5806 44.4972 34.1394 40.8314 34.1394C40.1558 34.1394 39.6086 33.592 39.6086 32.9167V31.3838C39.6086 31.2029 39.7563 31.0552 39.9373 31.0552H48.804C48.981 31.0552 49.1262 31.1957 49.1323 31.3725C49.2995 36.2496 53.3059 40.152 58.2237 40.152C63.1414 40.152 67.1478 36.2496 67.315 31.3725C67.3211 31.1957 67.4663 31.0552 67.6433 31.0552H76.5101C76.691 31.0552 76.8387 31.2029 76.8387 31.3838V32.9167C76.8387 33.5918 76.2915 34.1394 75.6159 34.1394ZM70.212 28.7584L70.2076 26.2974C70.2076 25.6656 70.7198 25.1534 71.3516 25.1534L73.4964 25.1488C73.8754 24.5569 74.5388 24.1646 75.2939 24.1646C76.4718 24.1646 77.4267 25.1194 77.4267 26.2974C77.4267 27.4754 76.4718 28.4302 75.2939 28.4302C74.5388 28.4302 73.8754 28.0378 73.4962 27.4459H72.4976L72.5 28.7584H70.212ZM46.6425 9.14484C46.1941 9.59323 45.467 9.59323 45.0184 9.14484C44.5701 8.69646 44.5701 7.96934 45.0184 7.52079C48.5231 4.01625 53.2683 2.05078 58.2242 2.05078C63.1802 2.05078 67.9245 4.01691 71.429 7.52161C71.8774 7.96999 71.8774 8.69712 71.429 9.14566C70.9807 9.59405 70.2535 9.59405 69.8052 9.14566C66.7137 6.05423 62.5959 4.34766 58.2242 4.34766C53.8527 4.34766 49.7339 6.05358 46.6425 9.14484ZM54.4609 16.9632C54.0125 17.4116 53.2854 17.4116 52.837 16.9632C52.3886 16.5149 52.3886 15.7877 52.837 15.3392C54.2158 13.9604 56.1204 13.1076 58.2242 13.1076C60.238 13.1076 62.1872 13.9151 63.6115 15.3392C64.0599 15.7876 64.0599 16.5147 63.6115 16.9632C63.1631 17.4116 62.436 17.4116 61.9876 16.9632C60.9768 15.9525 59.6538 15.4046 58.2243 15.4046C56.7545 15.4046 55.4239 16.0004 54.4609 16.9632ZM67.5204 11.4304C65.056 8.96602 61.7092 7.57936 58.2243 7.57936C54.7395 7.57936 51.3923 8.96585 48.9279 11.4301C48.4795 11.8785 48.4795 12.6056 48.9279 13.0541C49.3763 13.5025 50.1034 13.5025 50.5519 13.0541C52.603 11.003 55.3239 9.87623 58.2243 9.87623C61.1248 9.87623 63.8454 11.0033 65.8965 13.0543C66.3449 13.5027 67.072 13.5027 67.5206 13.0543C67.9688 12.6059 67.9688 11.8788 67.5204 11.4304ZM41.1538 28.4302C41.9088 28.4302 42.5723 28.0378 42.9512 27.4459H43.9501L43.9476 28.7585H46.2355L46.2399 26.2974C46.2399 25.6656 45.7277 25.1534 45.0959 25.1534L42.9511 25.1488C42.5721 24.5569 41.9086 24.1644 41.1536 24.1644C39.9756 24.1644 39.0208 25.1193 39.0208 26.2972C39.021 27.4752 39.976 28.4302 41.1538 28.4302ZM68.1944 22.336C69.3724 22.336 70.3272 21.3811 70.3272 20.2031C70.3272 19.0252 69.3724 18.0703 68.1944 18.0703C67.0164 18.0703 66.0616 19.0252 66.0616 20.2031C66.0616 20.3608 66.0788 20.5144 66.1113 20.6622L60.8459 25.9276C60.6216 26.1519 60.5095 26.4457 60.5094 26.7396V28.7582H62.8063V27.215L67.7353 22.2859C67.8832 22.3187 68.0369 22.336 68.1944 22.336ZM48.2531 22.336C47.0751 22.336 46.1203 21.3811 46.1203 20.2031C46.1203 19.0252 47.0751 18.0703 48.2531 18.0703C49.4311 18.0703 50.3859 19.0252 50.3859 20.2031C50.3859 20.3608 50.3687 20.5144 50.3362 20.6622L55.6016 25.9278C55.8259 26.1521 55.9379 26.4459 55.9379 26.7397V28.7584H53.6411V27.2152L48.712 22.2861C48.5643 22.3187 48.4108 22.336 48.2531 22.336ZM63.4632 31.4055C63.4758 31.2149 63.3263 31.0554 63.1352 31.0554H53.3121C53.121 31.0554 52.9717 31.2149 52.9842 31.4055C53.1643 34.1422 55.4413 36.3062 58.2237 36.3062C61.0062 36.3062 63.283 34.1422 63.4632 31.4055ZM22.0085 79.3165L16.4642 81.7486C15.2613 82.2762 13.85 81.7264 13.3211 80.524C10.0155 73.0095 6.71001 65.4947 3.40448 57.9802C2.86996 56.765 3.41449 55.3672 4.63035 54.8338L10.1747 52.4017C11.3776 51.8741 12.789 52.4239 13.3178 53.6263C16.6233 61.1408 19.9289 68.6556 23.2344 76.1701C23.7689 77.3855 23.2244 78.7833 22.0085 79.3165Z" fill="black"/>
</svg>
