<svg width="69" height="69" viewBox="0 0 69 69" fill="none" xmlns="http://www.w3.org/2000/svg">
<g clip-path="url(#clip0_1062_4080)">
<path d="M62.4485 8.16028C54.8664 8.16028 41.0703 6.61627 36.7489 0.926117C36.0145 -0.227813 34.4073 -0.330466 33.5298 0.77082C28.4418 6.45992 14.6136 8.16028 6.46875 8.16028C5.35219 8.16028 4.44727 9.06837 4.44727 10.1891V42.655C4.44727 57.2776 21.2793 66.21 34.0304 68.9874C35.6771 69.3454 64.47 62.0517 64.47 42.655V10.1891C64.47 9.0689 63.5651 8.16028 62.4485 8.16028ZM60.4271 42.655C60.4271 57.8935 37.8744 64.0722 34.4584 64.9192C31.0424 64.0722 8.49023 57.8935 8.49023 42.655V12.1954C24.1004 11.8348 31.8852 7.33853 34.9801 4.90117C41.2161 10.4166 52.1216 12.0069 60.4271 12.1959V42.655Z" fill="black"/>
<path d="M24.3574 26.3553V32.5103H22.3291C21.2131 32.5103 20.3076 33.4189 20.3076 34.5391V50.772C20.3076 51.8928 21.2131 52.8014 22.3291 52.8014H46.5869C47.7034 52.8014 48.6084 51.8928 48.6084 50.772V34.5391C48.6084 33.4189 47.7034 32.5103 46.5869 32.5103H28.4004V26.3553C28.4004 23.1841 30.8978 20.3356 34.5191 20.3356C37.8261 20.3356 40.5161 23.0356 40.5161 26.3553C40.5161 27.4755 41.4216 28.3841 42.5376 28.3841C43.6542 28.3841 44.5591 27.4755 44.5591 26.3553C44.5591 20.7983 40.0555 16.2773 34.5191 16.2773C28.6331 16.2773 24.3574 20.9815 24.3574 26.3553ZM44.5654 48.7432H24.3506V36.5685H44.5654V48.7432Z" fill="black"/>
<path d="M36.4795 42.6539C36.4795 41.5331 35.5746 40.625 34.458 40.625C33.342 40.625 32.4365 41.5331 32.4365 42.6539C32.4365 43.7746 33.342 44.6832 34.458 44.6832C35.5746 44.6832 36.4795 43.7746 36.4795 42.6539Z" fill="black"/>
</g>
<defs>
<clipPath id="clip0_1062_4080">
<rect width="69" height="69" fill="white"/>
</clipPath>
</defs>
</svg>
