<svg width="36" height="47" viewBox="0 0 36 47" fill="none" xmlns="http://www.w3.org/2000/svg">
<g filter="url(#filter0_d_1079_4728)">
<path d="M31.9657 13.0356C31.5051 5.94668 25.1168 0 17.9905 0H17.8875C14.1918 0.030767 10.7182 1.49989 8.10475 4.14104C5.45692 6.81103 4 10.3531 4 14.1143C4 26.1509 16.6728 38.1818 17.2115 38.6875C17.4336 38.8962 17.7178 39 18.001 39C18.2841 39 18.5673 38.8962 18.7885 38.6875C19.3416 38.1664 32 26.149 32 14.1191C32 13.7567 31.9895 13.3961 31.9657 13.0365V13.0356ZM18.001 20.46C14.5293 20.46 11.7051 17.6122 11.7051 14.1115C11.7051 10.6108 14.5293 7.76289 18.001 7.76289C21.4726 7.76289 24.2949 10.6108 24.2949 14.1115C24.2949 17.6122 21.4707 20.46 18.001 20.46Z" fill="#004A61"/>
</g>
<defs>
<filter id="filter0_d_1079_4728" x="0" y="0" width="36" height="47" filterUnits="userSpaceOnUse" color-interpolation-filters="sRGB">
<feFlood flood-opacity="0" result="BackgroundImageFix"/>
<feColorMatrix in="SourceAlpha" type="matrix" values="0 0 0 0 0 0 0 0 0 0 0 0 0 0 0 0 0 0 127 0" result="hardAlpha"/>
<feOffset dy="4"/>
<feGaussianBlur stdDeviation="2"/>
<feComposite in2="hardAlpha" operator="out"/>
<feColorMatrix type="matrix" values="0 0 0 0 0 0 0 0 0 0 0 0 0 0 0 0 0 0 0.25 0"/>
<feBlend mode="normal" in2="BackgroundImageFix" result="effect1_dropShadow_1079_4728"/>
<feBlend mode="normal" in="SourceGraphic" in2="effect1_dropShadow_1079_4728" result="shape"/>
</filter>
</defs>
</svg>
