<svg width="34" height="27" viewBox="0 0 34 27" fill="none" xmlns="http://www.w3.org/2000/svg">
<path fill-rule="evenodd" clip-rule="evenodd" d="M6.57272 15.2938L0.648681 26.118C0.548011 26.3029 0.570382 26.5211 0.70719 26.6806C0.843998 26.8392 1.0548 26.8909 1.24668 26.812L32.9164 13.9539C33.1031 13.8777 33.2193 13.7033 33.2193 13.4982C33.2193 13.2932 33.1031 13.1188 32.9164 13.0425L1.24668 0.184432C1.05394 0.10644 0.843998 0.157266 0.70719 0.316755C0.570382 0.475367 0.547151 0.694445 0.648681 0.878471L6.57272 11.7018L21.57 13.323C21.6853 13.3352 21.7704 13.4097 21.7704 13.4982C21.7704 13.5867 21.6861 13.6603 21.57 13.6735L6.57272 15.2947V15.2938Z" fill="#FFCF88"/>
</svg>
