<svg width="39" height="39" viewBox="0 0 39 39" fill="none" xmlns="http://www.w3.org/2000/svg">
<path d="M37.9341 35.3787C39.522 33.7952 39.3073 31.1582 37.484 29.8156L31.1783 25.1833C29.712 24.1046 27.6882 24.2535 26.4113 25.526L25.3315 26.6058C25.2078 26.7295 25.0775 26.8423 24.9417 26.9442C24.4259 27.46 23.6538 27.6243 22.9716 27.3647C17.4883 25.284 13.7058 21.4938 11.6131 16.0051C11.3524 15.3218 11.5156 14.5497 12.0336 14.0328L12.2482 13.8182C12.2942 13.7667 12.3413 13.7163 12.3906 13.6671L13.4693 12.5884C14.7462 11.3115 14.8918 9.2888 13.8164 7.82135L9.18083 1.51351C7.8426 -0.306569 5.20338 -0.520115 3.61876 1.06342L2.50174 2.18043C1.22703 3.45623 0.388177 5.09781 0.113304 6.87189C0.0749753 7.115 0.0486927 7.3614 0.032266 7.6089C-0.249178 11.9499 1.31574 16.6063 4.52441 21.5442C4.63283 21.7106 4.74234 21.8771 4.85404 22.0447C8.05396 26.8248 12.1771 30.9479 16.9572 34.1478C17.1149 34.253 17.2715 34.357 17.4292 34.4588C22.3769 37.6774 27.0443 39.2511 31.393 38.9674C31.6394 38.9521 31.8858 38.9247 32.1278 38.8875C33.9019 38.6137 35.5456 37.7727 36.8171 36.5012L37.9341 35.3798V35.3787Z" fill="#004A61"/>
<path d="M38.9962 18.5793C38.6402 13.7719 36.5667 9.24839 33.1595 5.84018C29.7523 2.43412 25.2288 0.360586 20.4202 0.00352578C19.6921 -0.0491729 19.0576 0.495022 19.0038 1.2242C18.9489 1.9523 19.4964 2.58684 20.2245 2.64061C24.4017 2.95143 28.3305 4.75179 31.2892 7.71044C34.249 10.6702 36.0494 14.6 36.3591 18.775C36.4107 19.4698 36.9904 20 37.6766 20C37.7099 20 37.7422 19.9989 37.7755 19.9968C38.5036 19.943 39.0511 19.3085 38.9962 18.5804V18.5793Z" fill="#004A61"/>
<path d="M28.2187 11.7796C26.1282 9.68803 23.4748 8.38598 20.5467 8.01189C19.7952 7.9125 19.1061 8.44739 19.0112 9.20004C18.9152 9.95268 19.4467 10.6394 20.1994 10.7355C22.5189 11.0325 24.6206 12.0643 26.2778 13.7215C27.935 15.3786 28.9669 17.4802 29.264 19.8007C29.3522 20.4941 29.9429 21 30.6241 21C30.6822 21 30.7414 20.9967 30.8006 20.9888C31.5533 20.8928 32.0848 20.2049 31.9888 19.4523C31.6147 16.5232 30.3115 13.8711 28.2198 11.7807L28.2187 11.7796Z" fill="#004A61"/>
</svg>
