<svg width="28" height="28" viewBox="0 0 28 28" fill="none" xmlns="http://www.w3.org/2000/svg">
<path d="M16.7442 16.9793C18.1719 15.5516 18.8857 13.8373 18.8857 11.8364C18.8857 9.83551 18.1719 8.12662 16.7442 6.70976C15.3274 5.28209 13.6185 4.56825 11.6176 4.56825C9.61667 4.56825 7.90238 5.28209 6.47471 6.70976C5.05785 8.12662 4.34942 9.83551 4.34942 11.8364C4.34942 13.8373 5.05785 15.5516 6.47471 16.9793C7.90238 18.3961 9.61667 19.1046 11.6176 19.1046C13.6185 19.1046 15.3274 18.3961 16.7442 16.9793ZM27.1922 25.3344C27.1922 25.8968 26.9867 26.3836 26.5757 26.7946C26.1647 27.2055 25.678 27.411 25.1156 27.411C24.5315 27.411 24.0448 27.2055 23.6555 26.7946L18.0908 21.2461C16.1548 22.5872 13.997 23.2578 11.6176 23.2578C10.0709 23.2578 8.58918 22.9604 7.17232 22.3655C5.76628 21.7598 4.54951 20.9487 3.52202 19.932C2.50534 18.9045 1.69416 17.6877 1.08848 16.2817C0.493616 14.8648 0.196183 13.3831 0.196183 11.8364C0.196183 10.2898 0.493616 8.81342 1.08848 7.40738C1.69416 5.99052 2.50534 4.77375 3.52202 3.75707C4.54951 2.72958 5.76628 1.9184 7.17232 1.32354C8.58918 0.717856 10.0709 0.415016 11.6176 0.415016C13.1642 0.415016 14.6406 0.717856 16.0466 1.32354C17.4635 1.9184 18.6802 2.72958 19.6969 3.75707C20.7244 4.77375 21.5356 5.99052 22.1305 7.40738C22.7361 8.81342 23.039 10.2898 23.039 11.8364C23.039 14.2159 22.3684 16.3736 21.0273 18.3096L26.5919 23.8743C26.9921 24.2745 27.1922 24.7612 27.1922 25.3344Z" fill="white"/>
</svg>
