<svg width="685" height="236" viewBox="0 0 685 236" fill="none" xmlns="http://www.w3.org/2000/svg">
<g clip-path="url(#clip0_1062_4226)">
<path d="M81.764 141.467L405.5 141.467L406.243 141.749L464.568 193.595L701.731 193.595L701.731 195.824L464.145 195.824L463.405 195.542L405.076 143.696L81.764 143.696L81.764 141.467Z" fill="#231F20"/>
<path d="M82.0577 136.715C78.8176 136.715 76.1906 139.342 76.1906 142.582C76.1906 145.822 78.8176 148.449 82.0577 148.449C85.2978 148.449 87.9248 145.822 87.9248 142.582C87.9248 139.342 85.2978 136.715 82.0577 136.715Z" fill="#231F20"/>
<path d="M42.6672 110.726L432.067 110.726L432.821 111.02L485.633 159.61L701.731 159.61L701.731 161.84L485.198 161.84L484.444 161.546L431.632 112.956L42.6672 112.956L42.6672 110.726Z" fill="#231F20"/>
<path d="M42.961 105.973C39.7207 105.973 37.0939 108.6 37.0939 111.84C37.0939 115.08 39.7207 117.707 42.961 117.707C46.2013 117.707 48.8281 115.08 48.8281 111.84C48.8281 108.6 46.2013 105.973 42.961 105.973Z" fill="#231F20"/>
<path d="M93.2307 159.612L263.652 159.612L264.325 159.839L290.089 179.339L388.961 179.339L389.7 179.621L440.509 224.782L701.731 224.782L701.731 227.011L440.086 227.011L439.346 226.733L388.537 181.568L289.714 181.568L289.042 181.341L263.277 161.841L93.7844 161.841L41.3482 231.039L39.572 229.694L92.3427 160.054L93.2307 159.612Z" fill="#231F20"/>
<path d="M35.9609 226.587C34.0027 229.169 34.5118 232.852 37.0942 234.806C39.6767 236.761 43.3589 236.255 45.3134 233.673C47.2716 231.09 46.7625 227.408 44.1801 225.454C41.5977 223.496 37.9154 224.005 35.9609 226.587Z" fill="#231F20"/>
<path d="M415.023 177.56L701.731 177.56L701.731 179.789L415.677 179.789L397.953 211.299L396.979 211.867L285.705 211.867L285.029 211.637L254.378 188.284L255.726 186.511L286.08 209.638L396.329 209.638L414.053 178.125L415.023 177.56Z" fill="#231F20"/>
<path d="M258.84 182.908C256.261 180.947 252.579 181.441 250.617 184.019C248.655 186.598 249.149 190.28 251.728 192.242C254.306 194.204 257.989 193.706 259.951 191.131C261.916 188.553 261.418 184.87 258.84 182.908Z" fill="#231F20"/>
<path d="M293.286 161.844L392.67 161.844L392.67 159.614L293.286 159.614L293.286 161.844Z" fill="#231F20"/>
<path d="M392.335 154.86C395.575 154.86 398.202 157.487 398.202 160.727C398.202 163.967 395.575 166.594 392.335 166.594C389.095 166.594 386.468 163.967 386.468 160.727C386.468 157.487 389.095 154.86 392.335 154.86Z" fill="white"/>
<path d="M392.335 154.08C388.671 154.08 385.688 157.064 385.688 160.728C385.688 164.391 388.671 167.375 392.335 167.375C395.999 167.375 398.982 164.391 398.982 160.728C398.982 157.064 395.999 154.08 392.335 154.08C388.671 154.08 396.002 154.08 392.335 154.08ZM392.335 165.818C389.53 165.818 387.248 163.537 387.248 160.731C387.248 157.926 389.53 155.644 392.335 155.644C395.14 155.644 397.422 157.926 397.422 160.731C397.422 163.537 395.14 165.818 392.335 165.818C389.53 165.818 395.14 165.818 392.335 165.818Z" fill="#231F20"/>
<path d="M289.427 156.578C287.136 158.869 287.136 162.584 289.427 164.875C291.718 167.166 295.433 167.166 297.724 164.875C300.016 162.584 300.016 158.869 297.724 156.578C295.433 154.287 291.718 154.287 289.427 156.578Z" fill="#231F20"/>
<path d="M534.881 137.398L701.731 137.398L701.731 135.169L534.881 135.169L534.881 137.398Z" fill="#231F20"/>
<path d="M531.027 132.136C528.735 134.428 528.735 138.143 531.027 140.434C533.318 142.725 537.033 142.725 539.324 140.434C541.615 138.143 541.615 134.428 539.324 132.136C537.033 129.845 533.318 129.845 531.027 132.136Z" fill="#231F20"/>
<path d="M367.469 73.3048L451.114 73.3048L451.879 73.6095L495.665 115.185L701.731 115.185L701.731 117.414L495.223 117.414L494.454 117.109L450.668 75.5342L367.469 75.5343L367.469 73.3048Z" fill="#231F20"/>
<path d="M362.34 72.1761C361.1 75.1698 362.521 78.6018 365.515 79.8419C368.508 81.0819 371.941 79.6603 373.181 76.6666C374.421 73.6729 372.999 70.2409 370.005 69.0008C367.012 67.7608 363.58 69.1824 362.34 72.1761Z" fill="#231F20"/>
<path d="M206.07 64.3949L310.768 64.3949L311.608 64.7776L337.339 94.2432L473.167 94.2432L473.167 96.4727L336.834 96.4727L335.994 96.0937L310.263 66.6243L206.07 66.6243L206.07 64.3949Z" fill="#231F20"/>
<path d="M206.363 59.6408C203.123 59.6408 200.496 62.2676 200.496 65.5079C200.496 68.7482 203.123 71.375 206.363 71.375C209.604 71.375 212.23 68.7482 212.23 65.5079C212.23 62.2676 209.604 59.6408 206.363 59.6408Z" fill="#231F20"/>
<path d="M157.39 83.4075L327.369 83.4075L327.369 85.637L157.609 85.637L136.898 94.25L136.043 92.1915L156.963 83.493L157.39 83.4075Z" fill="#231F20"/>
<path d="M134.49 87.6864C131.499 88.9312 130.079 92.3645 131.324 95.3556C132.569 98.3468 136.002 99.7662 138.993 98.5214C141.984 97.2767 143.404 93.8433 142.159 90.8522C140.914 87.861 137.481 86.4416 134.49 87.6864Z" fill="#231F20"/>
<path d="M81.2624 4.80969L136.723 48.3542L466.151 48.3541L466.954 48.696L510.732 94.2432L701.731 94.2432L701.731 96.4727L510.261 96.4727L509.454 96.1308L465.676 50.5836L136.337 50.5836L135.649 50.3458L79.8838 6.56352L81.2624 4.80969Z" fill="#231F20"/>
<path d="M84.4291 1.25281C81.8801 -0.749957 78.1904 -0.304054 76.1913 2.24493C74.1922 4.79391 74.6344 8.48361 77.1834 10.4827C79.7324 12.4817 83.4221 12.0396 85.4211 9.49058C87.4202 6.94159 86.978 3.25187 84.4291 1.25281Z" fill="#231F20"/>
<path d="M596.03 75.5313L701.731 75.5312L701.731 73.3018L596.03 73.3018L596.03 75.5313Z" fill="#231F20"/>
<path d="M596.323 68.5509C593.083 68.5509 590.456 71.1777 590.456 74.418C590.456 77.6584 593.083 80.2852 596.323 80.2852C599.564 80.2852 602.19 77.6584 602.19 74.418C602.19 71.1777 599.564 68.5509 596.323 68.5509Z" fill="#231F20"/>
<path d="M563.953 58.6016L701.731 58.6016L701.731 56.3721L563.953 56.3721L563.953 58.6016Z" fill="#231F20"/>
<path d="M564.246 51.6212C561.006 51.6212 558.379 54.2482 558.379 57.4883C558.379 60.7285 561.006 63.3555 564.246 63.3555C567.486 63.3555 570.113 60.7285 570.113 57.4883C570.113 54.2482 567.486 51.6212 564.246 51.6212Z" fill="#231F20"/>
<path d="M524.856 39.8906L701.731 39.8906L701.731 37.6612L524.856 37.6612L524.856 39.8906Z" fill="#231F20"/>
<path d="M524.204 32.9941C521.005 33.5133 518.833 36.5271 519.352 39.7255C519.871 42.924 522.885 45.096 526.084 44.5768C529.282 44.0576 531.454 41.0438 530.935 37.8454C530.416 34.6469 527.402 32.475 524.204 32.9941Z" fill="#231F20"/>
<path d="M267.22 28.7548L484.195 28.7548L485.043 29.1412L516.021 65.3323L514.33 66.7852L483.683 30.9842L267.22 30.9842L267.22 28.7548Z" fill="#231F20"/>
<path d="M519.416 61.9907C521.523 64.4505 521.237 68.1551 518.773 70.2656C516.313 72.3725 512.609 72.0864 510.498 69.6228C508.392 67.163 508.678 63.4585 511.141 61.3516C513.601 59.2448 517.306 59.5309 519.412 61.9945L519.416 61.9907Z" fill="white"/>
<path d="M520.007 61.4816C517.625 58.6985 513.419 58.3715 510.632 60.7533C507.849 63.1351 507.522 67.3413 509.904 70.1281C512.285 72.9112 516.492 73.2381 519.278 70.8564C522.062 68.4746 522.389 64.2684 520.007 61.4816C517.625 58.6985 522.389 64.2647 520.007 61.4816ZM511.093 69.1137C509.268 66.9809 509.517 63.7668 511.65 61.9424C513.783 60.1179 516.997 60.3669 518.821 62.4997C520.646 64.6325 520.397 67.8466 518.264 69.671C516.131 71.4955 512.917 71.2465 511.093 69.1137C509.268 66.9809 512.917 71.2465 511.093 69.1137Z" fill="#231F20"/>
<path d="M267.513 23.9962C264.273 23.9962 261.646 26.6232 261.646 29.8633C261.646 33.1034 264.273 35.7305 267.513 35.7305C270.753 35.7305 273.38 33.1034 273.38 29.8633C273.38 26.6232 270.753 23.9962 267.513 23.9962Z" fill="#231F20"/>
<path d="M389.722 111.009L391.204 112.673L370.151 131.386L369.411 131.668L5.57208 131.668L5.57208 129.439L368.988 129.439L389.722 111.009Z" fill="#231F20"/>
<path d="M1.71899 126.406C-0.572263 128.697 -0.57227 132.412 1.71898 134.703C4.01023 136.995 7.7251 136.995 10.0164 134.703C12.3076 132.412 12.3076 128.697 10.0164 126.406C7.72511 124.115 4.01024 124.115 1.71899 126.406Z" fill="#231F20"/>
<path d="M460.743 165.17L462.255 163.531L435.91 139.229L434.398 140.868L460.743 165.17Z" fill="#231F20"/>
<path d="M465.243 159.825C467.625 162.021 467.774 165.733 465.578 168.115C463.382 170.497 459.67 170.646 457.288 168.45C454.906 166.254 454.757 162.542 456.953 160.16C459.149 157.778 462.861 157.63 465.243 159.825Z" fill="white"/>
<path d="M465.775 159.254C463.081 156.769 458.867 156.94 456.381 159.633C453.896 162.327 454.067 166.541 456.76 169.027C459.454 171.513 463.668 171.342 466.154 168.648C468.64 165.954 468.469 161.74 465.775 159.254C463.081 156.769 468.469 161.74 465.775 159.254ZM457.816 167.879C455.753 165.976 455.623 162.751 457.526 160.689C459.428 158.627 462.654 158.496 464.716 160.399C466.778 162.301 466.908 165.527 465.006 167.589C463.103 169.651 459.878 169.781 457.816 167.879C455.753 165.976 459.878 169.781 457.816 167.879Z" fill="#231F20"/>
<path d="M439.355 135.95C436.973 133.755 433.261 133.903 431.065 136.285C428.869 138.667 429.017 142.379 431.399 144.575C433.781 146.771 437.493 146.622 439.689 144.24C441.885 141.858 441.736 138.146 439.355 135.95Z" fill="#231F20"/>
</g>
<defs>
<clipPath id="clip0_1062_4226">
<rect width="701.732" height="236" fill="white" transform="translate(701.731 236) rotate(180)"/>
</clipPath>
</defs>
</svg>
