<svg width="268" height="268" viewBox="0 0 268 268" fill="none" xmlns="http://www.w3.org/2000/svg">
<g clip-path="url(#clip0_1071_4348)">
<path d="M133.999 210.574C101.52 210.574 73.3164 192.005 62.0859 163.291L73.9545 158.633C83.2707 182.434 106.816 197.812 133.999 197.812C161.182 197.812 184.728 182.434 194.044 158.633L205.913 163.291C194.682 192.005 166.478 210.574 133.999 210.574Z" fill="#FFDAA3"/>
<path d="M204.636 102.092H191.874C191.874 99.5397 186.323 95.7111 178.666 95.7111C171.009 95.7111 165.457 99.5397 165.457 102.092H152.695C152.695 91.3721 164.117 82.9492 178.666 82.9492C193.214 82.9492 204.636 91.3721 204.636 102.092Z" fill="#FFDAA3"/>
<path d="M115.304 102.092H102.542C102.542 99.5397 96.9909 95.7111 89.3338 95.7111C81.6766 95.7111 76.1252 99.5397 76.1252 102.092H63.3633C63.3633 91.3721 74.7852 82.9492 89.3338 82.9492C103.882 82.9492 115.304 91.3721 115.304 102.092Z" fill="#FFDAA3"/>
<path d="M134 268C60.1086 268 0 207.891 0 134C0 60.1086 60.1086 0 134 0C207.891 0 268 60.1086 268 134C268 207.891 207.891 268 134 268ZM134 12.7619C67.1276 12.7619 12.7619 67.1276 12.7619 134C12.7619 200.872 67.1276 255.238 134 255.238C200.872 255.238 255.238 200.872 255.238 134C255.238 67.1276 200.872 12.7619 134 12.7619Z" fill="#FFDAA3"/>
</g>
<defs>
<clipPath id="clip0_1071_4348">
<rect width="268" height="268" fill="white"/>
</clipPath>
</defs>
</svg>
