<svg width="368" height="1208" viewBox="0 0 368 1208" fill="none" xmlns="http://www.w3.org/2000/svg">
<g clip-path="url(#clip0_1062_4168)">
<path d="M162.627 141.079L162.627 698.014L162.141 699.292L72.9496 799.632L72.9496 1207.63L69.1143 1207.63L69.1142 798.903L69.6001 797.631L158.792 697.285L158.792 141.079L162.627 141.079Z" fill="#231F20"/>
<path d="M170.803 141.582C170.803 136.008 166.284 131.489 160.71 131.489C155.136 131.489 150.616 136.008 150.616 141.582C150.616 147.156 155.136 151.676 160.71 151.676C166.284 151.676 170.803 147.156 170.803 141.582Z" fill="#231F20"/>
<path d="M215.509 73.8192L215.51 743.719L215.005 745.016L131.413 835.87L131.413 1207.63L127.577 1207.63L127.577 835.122L128.082 833.824L211.674 742.971L211.674 73.8192L215.509 73.8192Z" fill="#231F20"/>
<path d="M223.685 74.3245C223.685 68.7501 219.166 64.2311 213.591 64.2311C208.017 64.2311 203.498 68.7501 203.498 74.3245C203.498 79.899 208.017 84.418 213.591 84.418C219.166 84.418 223.685 79.899 223.685 74.3245Z" fill="#231F20"/>
<path d="M131.413 160.806L131.413 453.988L131.023 455.145L97.4765 499.469L97.4765 669.562L96.9907 670.834L19.2988 758.242L19.2988 1207.63L15.4634 1207.63L15.4634 757.513L15.9428 756.241L93.6411 668.833L93.6411 498.824L94.0311 497.667L127.578 453.342L127.578 161.758L8.53413 71.5499L10.8481 68.4944L130.652 159.278L131.413 160.806Z" fill="#231F20"/>
<path d="M16.1917 62.2827C11.749 58.914 5.41425 59.7897 2.0519 64.2324C-1.31044 68.675 -0.441091 75.0098 4.00155 78.3721C8.44419 81.7409 14.779 80.8651 18.1413 76.4224C21.51 71.9798 20.6343 65.645 16.1917 62.2827Z" fill="#231F20"/>
<path d="M100.538 714.397L100.538 1207.63L96.7022 1207.63L96.7022 715.522L42.4956 685.031L41.5176 683.356L41.5175 491.926L41.9139 490.763L82.0894 438.033L85.1386 440.353L45.3529 492.572L45.3529 682.238L99.566 712.729L100.538 714.397Z" fill="#231F20"/>
<path d="M91.339 445.709C94.7141 441.273 93.8639 434.938 89.4277 431.563C84.9914 428.187 78.6567 429.038 75.2815 433.474C71.9064 437.91 72.763 444.245 77.1928 447.62C81.6291 451.002 87.9638 450.145 91.339 445.709Z" fill="#231F20"/>
<path d="M127.577 504.967L127.577 675.941L131.413 675.941L131.413 504.967L127.577 504.967Z" fill="#231F20"/>
<path d="M139.588 675.364C139.588 680.938 135.069 685.457 129.495 685.457C123.921 685.457 119.401 680.938 119.401 675.364C119.401 669.79 123.921 665.27 129.495 665.27C135.069 665.27 139.588 669.79 139.588 675.364Z" fill="white"/>
<path d="M140.931 675.365C140.931 669.062 135.798 663.929 129.495 663.929C123.193 663.929 118.06 669.062 118.06 675.365C118.06 681.668 123.193 686.801 129.495 686.801C135.798 686.801 140.931 681.668 140.931 675.365C140.931 669.062 140.931 681.674 140.931 675.365ZM120.738 675.365C120.738 670.539 124.663 666.614 129.489 666.614C134.315 666.614 138.24 670.539 138.24 675.365C138.24 680.191 134.315 684.116 129.489 684.116C124.663 684.116 120.738 680.191 120.738 675.365C120.738 670.539 120.738 680.191 120.738 675.365Z" fill="#231F20"/>
<path d="M136.635 498.327C132.693 494.385 126.303 494.385 122.361 498.327C118.419 502.269 118.419 508.659 122.361 512.601C126.303 516.543 132.693 516.543 136.635 512.601C140.577 508.659 140.577 502.269 136.635 498.327Z" fill="#231F20"/>
<path d="M169.625 920.593L169.625 1207.63L173.46 1207.63L173.46 920.593L169.625 920.593Z" fill="#231F20"/>
<path d="M178.68 913.96C174.738 910.018 168.348 910.018 164.406 913.96C160.464 917.901 160.464 924.292 164.406 928.234C168.348 932.176 174.738 932.176 178.68 928.234C182.622 924.292 182.622 917.901 178.68 913.96Z" fill="#231F20"/>
<path d="M279.892 632.589L279.892 776.485L279.368 777.802L207.844 853.129L207.844 1207.63L204.009 1207.63L204.009 852.368L204.533 851.045L276.056 775.718L276.056 632.589L279.892 632.589Z" fill="#231F20"/>
<path d="M281.832 623.765C276.682 621.631 270.777 624.077 268.644 629.227C266.511 634.377 268.956 640.282 274.107 642.415C279.257 644.548 285.161 642.102 287.294 636.952C289.427 631.802 286.982 625.898 281.832 623.765Z" fill="#231F20"/>
<path d="M295.222 354.925L295.222 535.04L294.563 536.485L243.872 580.752L243.872 814.422L240.037 814.422L240.037 579.882L240.689 578.438L291.386 534.171L291.386 354.925L295.222 354.925Z" fill="#231F20"/>
<path d="M303.397 355.43C303.397 349.856 298.878 345.337 293.303 345.337C287.729 345.337 283.21 349.856 283.21 355.43C283.21 361.004 287.729 365.523 293.303 365.523C298.878 365.523 303.397 361.004 303.397 355.43Z" fill="#231F20"/>
<path d="M262.511 271.18L262.511 563.602L258.676 563.602L258.676 271.557L243.858 235.926L247.4 234.456L262.364 270.445L262.511 271.18Z" fill="#231F20"/>
<path d="M255.148 231.784C253.006 226.638 247.1 224.196 241.954 226.338C236.808 228.479 234.366 234.386 236.508 239.531C238.649 244.677 244.556 247.119 249.701 244.978C254.847 242.836 257.289 236.93 255.148 231.784Z" fill="#231F20"/>
<path d="M397.729 140.216L322.817 235.627L322.817 802.355L322.229 803.736L243.872 879.05L243.872 1207.63L240.037 1207.63L240.037 878.238L240.625 876.851L318.982 801.537L318.982 234.963L319.391 233.78L394.711 137.844L397.729 140.216Z" fill="#231F20"/>
<path d="M276.058 1025.79L276.058 1207.63L279.893 1207.63L279.893 1025.79L276.058 1025.79Z" fill="#231F20"/>
<path d="M288.069 1026.3C288.069 1020.72 283.55 1016.2 277.975 1016.2C272.401 1016.2 267.882 1020.72 267.882 1026.3C267.882 1031.87 272.401 1036.39 277.975 1036.39C283.55 1036.39 288.069 1031.87 288.069 1026.3Z" fill="#231F20"/>
<path d="M305.181 970.607L305.181 1207.63L309.016 1207.63L309.016 970.607L305.181 970.607Z" fill="#231F20"/>
<path d="M317.192 971.114C317.192 965.54 312.672 961.02 307.098 961.02C301.524 961.02 297.005 965.54 297.005 971.114C297.005 976.688 301.524 981.207 307.098 981.207C312.672 981.207 317.192 976.688 317.192 971.114Z" fill="#231F20"/>
<path d="M337.372 903.347L337.372 1207.63L341.207 1207.63L341.207 903.347L337.372 903.347Z" fill="#231F20"/>
<path d="M349.239 902.224C348.345 896.722 343.161 892.985 337.658 893.879C332.156 894.772 328.419 899.956 329.312 905.459C330.206 910.961 335.39 914.698 340.893 913.805C346.395 912.911 350.132 907.727 349.239 902.224Z" fill="#231F20"/>
<path d="M356.537 460.127L356.537 833.398L355.873 834.856L293.612 888.148L291.112 885.24L352.702 832.516L352.702 460.127L356.537 460.127Z" fill="#231F20"/>
<path d="M299.358 893.988C295.126 897.613 288.753 897.12 285.122 892.882C281.498 888.651 281.99 882.277 286.228 878.647C290.46 875.022 296.833 875.514 300.457 879.753C304.082 883.984 303.59 890.357 299.351 893.982L299.358 893.988Z" fill="white"/>
<path d="M300.233 895.006C305.021 890.908 305.584 883.672 301.486 878.878C297.389 874.09 290.153 873.528 285.358 877.625C280.571 881.723 280.008 888.959 284.105 893.753C288.203 898.541 295.439 899.103 300.233 895.006C305.021 890.908 295.445 899.103 300.233 895.006ZM287.103 879.671C290.773 876.532 296.302 876.96 299.441 880.63C302.579 884.299 302.151 889.828 298.482 892.967C294.813 896.105 289.283 895.677 286.145 892.008C283.006 888.339 283.434 882.809 287.103 879.671C290.773 876.532 283.434 882.809 287.103 879.671Z" fill="#231F20"/>
<path d="M364.719 460.629C364.719 455.055 360.2 450.536 354.626 450.536C349.052 450.536 344.532 455.055 344.532 460.629C344.532 466.203 349.052 470.723 354.626 470.723C360.2 470.723 364.719 466.203 364.719 460.629Z" fill="#231F20"/>
<path d="M215.024 670.871L212.16 673.422L179.968 637.203L179.482 635.931L179.482 10.0042L183.318 10.0042L183.318 635.202L215.024 670.871Z" fill="#231F20"/>
<path d="M188.538 3.37764C184.597 -0.564089 178.206 -0.564102 174.264 3.37763C170.322 7.31936 170.322 13.7102 174.264 17.6519C178.206 21.5936 184.597 21.5937 188.539 17.6519C192.48 13.7102 192.48 7.31937 188.538 3.37764Z" fill="#231F20"/>
<path d="M121.849 793.052L124.668 795.652L166.475 750.33L163.656 747.73L121.849 793.052Z" fill="#231F20"/>
<path d="M131.042 800.79C127.264 804.887 120.878 805.143 116.78 801.365C112.683 797.587 112.427 791.202 116.205 787.104C119.983 783.007 126.369 782.751 130.466 786.529C134.564 790.307 134.819 796.692 131.042 800.79Z" fill="white"/>
<path d="M132.026 801.706C136.303 797.071 136.009 789.823 131.374 785.546C126.74 781.27 119.491 781.564 115.214 786.198C110.938 790.833 111.232 798.081 115.866 802.358C120.501 806.634 127.75 806.34 132.026 801.706C136.303 797.071 127.75 806.34 132.026 801.706ZM117.19 788.014C120.463 784.466 126.011 784.242 129.559 787.515C133.106 790.788 133.33 796.336 130.057 799.884C126.784 803.432 121.236 803.655 117.688 800.383C114.141 797.11 113.917 791.561 117.19 788.014C120.463 784.466 113.917 791.561 117.19 788.014Z" fill="#231F20"/>
<path d="M172.118 756.255C175.896 752.157 175.64 745.771 171.542 741.994C167.445 738.216 161.059 738.471 157.281 742.569C153.503 746.666 153.759 753.052 157.857 756.83C161.954 760.608 168.34 760.352 172.118 756.255Z" fill="#231F20"/>
</g>
<defs>
<clipPath id="clip0_1062_4168">
<rect width="1207.22" height="406" fill="white" transform="translate(0 1207.63) rotate(-90)"/>
</clipPath>
</defs>
</svg>
