<svg width="39" height="39" viewBox="0 0 39 39" fill="none" xmlns="http://www.w3.org/2000/svg">
<path d="M8 29.9994H3.32856C1.38147 27.1257 0.177885 23.6963 0 20H6.19462C6.28929 23.5741 6.91158 26.9926 8 30V29.9994Z" fill="#004A61"/>
<path d="M13 36.9994C9.90302 35.9241 7.16582 34.1943 5 32H9.26628C9.61441 32.6743 9.99296 33.3195 10.4013 33.9333C11.1901 35.119 12.0624 36.145 13 37V36.9994Z" fill="#004A61"/>
<path d="M34.9994 32C32.8332 34.1948 30.0958 35.9247 27 37C27.9375 36.145 28.8096 35.119 29.5989 33.9333C30.0072 33.3195 30.3857 32.6743 30.7338 32H35H34.9994Z" fill="#004A61"/>
<path d="M39 20C38.8221 23.6963 37.6184 27.1257 35.6718 30H31C32.0879 26.9932 32.7108 23.5747 32.8049 20H39Z" fill="#004A61"/>
<path d="M39 18H32.8049C32.7102 14.4259 32.0879 11.0074 31 8H35.6718C37.6184 10.8743 38.8221 14.3031 39 18Z" fill="#004A61"/>
<path d="M35 6H30.7338C30.3857 5.32574 30.0072 4.68054 29.5989 4.06673C28.8103 2.88096 27.9381 1.85503 27 1C30.0965 2.07533 32.8332 3.80574 34.9994 6H35Z" fill="#004A61"/>
<path d="M8 8C6.91219 11.0068 6.28929 14.4253 6.19462 18H0C0.177885 14.3037 1.38147 10.8743 3.32856 8H8Z" fill="#004A61"/>
<path d="M13 1C12.0624 1.85503 11.1901 2.88096 10.4013 4.06673C9.99296 4.68054 9.61441 5.32574 9.26628 6H5C7.16582 3.80516 9.90302 2.07591 13 1.00058V1Z" fill="#004A61"/>
<path d="M30 20C29.9006 23.6181 29.239 27.0518 28.0867 30H20V20H30Z" fill="#004A61"/>
<path d="M18 20V30H9.9133C8.76103 27.0524 8.09945 23.6187 8 20H18Z" fill="#004A61"/>
<path d="M18 32V39C15.5933 38.5884 13.3306 36.5416 11.5503 33.1319C11.359 32.7652 11.1757 32.3879 11 32H17.9994H18Z" fill="#004A61"/>
<path d="M27 32C26.8248 32.3879 26.641 32.7652 26.4497 33.1319C24.6694 36.5416 22.4067 38.5891 20 39V32H26.9994H27Z" fill="#004A61"/>
<path d="M18 0V7H11C11.1752 6.61214 11.359 6.23483 11.5503 5.86807C13.3303 2.45844 15.5931 0.411609 18 0Z" fill="#004A61"/>
<path d="M26.9994 7H20V0C22.4067 0.411609 24.6694 2.45844 26.4497 5.86807C26.641 6.23483 26.8243 6.61214 27 7H26.9994Z" fill="#004A61"/>
<path d="M30 18H20V8H28.0867C29.239 10.9476 29.9006 14.3813 30 18Z" fill="#004A61"/>
<path d="M18 8V18H8C8.09945 14.3819 8.76103 10.9482 9.9133 8H18Z" fill="#004A61"/>
</svg>
